<svg width="256" height="64" viewBox="0 0 256 64" fill="none" xmlns="http://www.w3.org/2000/svg">
<rect width="256" height="64" fill="#D88144"/>
<path d="M75.4414 40V29.2871H76.8086L77.0137 30.8203C77.4368 30.293 77.9642 29.8698 78.5957 29.5508C79.2337 29.2253 79.9206 29.0625 80.6562 29.0625C81.8932 29.0625 82.8079 29.4108 83.4004 30.1074C83.9928 30.7975 84.2891 31.862 84.2891 33.3008V40H82.6582C82.6582 35.7031 82.6549 33.4017 82.6484 33.0957C82.6224 32.1842 82.4368 31.5169 82.0918 31.0938C81.7533 30.6706 81.1836 30.459 80.3828 30.459C79.543 30.459 78.8431 30.6608 78.2832 31.0645C77.7233 31.4681 77.3587 31.9922 77.1895 32.6367C77.1243 33.0729 77.0918 33.5742 77.0918 34.1406V40H75.4414ZM93.1758 31.2695C92.7005 30.6966 92.0462 30.4102 91.2129 30.4102C90.3796 30.4102 89.6992 30.7064 89.1719 31.2988C88.6445 31.8848 88.3353 32.6888 88.2441 33.7109H93.8984C93.8984 32.6497 93.6576 31.8359 93.1758 31.2695ZM91.5352 40.2246C89.9792 40.2246 88.752 39.7298 87.8535 38.7402C86.9616 37.7507 86.5156 36.3965 86.5156 34.6777C86.5156 33.0176 86.9486 31.6732 87.8145 30.6445C88.6803 29.6094 89.8197 29.082 91.2324 29.0625C92.5605 29.0625 93.612 29.5182 94.3867 30.4297C95.168 31.3346 95.5586 32.5456 95.5586 34.0625C95.5586 34.1406 95.5553 34.2839 95.5488 34.4922C95.5488 34.7005 95.5488 34.8503 95.5488 34.9414H88.1953C88.2148 36.1589 88.5273 37.1094 89.1328 37.793C89.7448 38.4701 90.5651 38.8086 91.5938 38.8086C92.7266 38.8086 93.8626 38.5091 95.002 37.9102L95.2559 39.2285C94.1686 39.8926 92.9284 40.2246 91.5352 40.2246ZM107.072 40C105.568 35.1953 104.637 32.2038 104.279 31.0254C104.077 31.7415 103.846 32.5163 103.586 33.3496C103.326 34.1829 103.098 34.8991 102.902 35.498C102.707 36.097 102.453 36.8717 102.141 37.8223C101.828 38.7728 101.59 39.4987 101.428 40H99.6699L96.6133 29.2871H98.3027L100.598 38.0566C100.917 37.015 101.854 34.0918 103.41 29.2871H105.256C106.805 34.196 107.717 37.1094 107.99 38.0273L110.256 29.2871H111.926L108.84 40H107.072ZM120.148 26.7969C119.061 26.7969 118.124 27.0605 117.336 27.5879C116.555 28.1152 115.972 28.8249 115.588 29.7168C115.204 30.6087 115.012 31.6341 115.012 32.793C115.012 33.6589 115.116 34.4499 115.324 35.166C115.533 35.8757 115.845 36.5007 116.262 37.041C116.678 37.5749 117.219 37.9915 117.883 38.291C118.553 38.584 119.322 38.7305 120.188 38.7305C121.301 38.7305 122.453 38.4408 123.645 37.8613L123.928 39.2969C122.958 39.9089 121.646 40.2148 119.992 40.2148C118.905 40.2148 117.928 40.0358 117.062 39.6777C116.203 39.3132 115.49 38.8021 114.924 38.1445C114.364 37.4805 113.938 36.6927 113.645 35.7812C113.352 34.8633 113.205 33.8444 113.205 32.7246C113.205 31.6439 113.365 30.6478 113.684 29.7363C114.003 28.8249 114.452 28.0436 115.031 27.3926C115.617 26.735 116.346 26.224 117.219 25.8594C118.091 25.4948 119.061 25.3125 120.129 25.3125C121.75 25.3125 123.117 25.6706 124.23 26.3867L123.566 27.7637C122.499 27.1191 121.359 26.7969 120.148 26.7969ZM129.201 38.9062C129.976 38.9062 130.656 38.6947 131.242 38.2715C131.835 37.8418 132.215 37.2656 132.385 36.543V34.7363C132.352 34.7363 132.154 34.7526 131.789 34.7852C131.431 34.8177 131.197 34.8372 131.086 34.8438C129.673 34.9674 128.687 35.1986 128.127 35.5371C127.574 35.8757 127.297 36.4193 127.297 37.168C127.297 37.7409 127.466 38.1738 127.805 38.4668C128.143 38.7598 128.609 38.9062 129.201 38.9062ZM132.746 40C132.648 39.5833 132.554 39.1341 132.463 38.6523C131.87 39.2448 131.314 39.6549 130.793 39.8828C130.272 40.1107 129.66 40.2246 128.957 40.2246C127.954 40.2246 127.147 39.9642 126.535 39.4434C125.93 38.916 125.627 38.1608 125.627 37.1777C125.627 36.084 126.04 35.2734 126.867 34.7461C127.701 34.2188 128.898 33.89 130.461 33.7598C130.676 33.7402 130.998 33.7142 131.428 33.6816C131.864 33.6426 132.189 33.6133 132.404 33.5938V32.6465C132.404 31.8913 132.229 31.3314 131.877 30.9668C131.525 30.6022 130.972 30.4199 130.217 30.4199C129.162 30.4199 128.098 30.6803 127.023 31.2012C126.991 31.123 126.906 30.8984 126.77 30.5273C126.633 30.1497 126.561 29.9544 126.555 29.9414C127.03 29.6745 127.593 29.4629 128.244 29.3066C128.902 29.1439 129.569 29.0625 130.246 29.0625C131.581 29.0625 132.541 29.3555 133.127 29.9414C133.719 30.5208 134.016 31.5104 134.016 32.9102V40H132.746ZM140.246 40.1953C139.191 40.1953 138.443 39.9382 138 39.4238C137.557 38.9095 137.323 38.0794 137.297 36.9336V30.498H135.705L135.773 29.4238L137.287 29.2871L137.844 26.8359L138.918 26.7969V29.2871H141.896V30.498H138.918V36.6406C138.918 37.4544 139.042 38.0273 139.289 38.3594C139.536 38.6914 139.96 38.8574 140.559 38.8574C140.773 38.8574 141.239 38.8053 141.955 38.7012L142.023 39.9902C141.249 40.127 140.656 40.1953 140.246 40.1953ZM146.818 38.9062C147.593 38.9062 148.273 38.6947 148.859 38.2715C149.452 37.8418 149.833 37.2656 150.002 36.543V34.7363C149.969 34.7363 149.771 34.7526 149.406 34.7852C149.048 34.8177 148.814 34.8372 148.703 34.8438C147.29 34.9674 146.304 35.1986 145.744 35.5371C145.191 35.8757 144.914 36.4193 144.914 37.168C144.914 37.7409 145.083 38.1738 145.422 38.4668C145.76 38.7598 146.226 38.9062 146.818 38.9062ZM150.363 40C150.266 39.5833 150.171 39.1341 150.08 38.6523C149.488 39.2448 148.931 39.6549 148.41 39.8828C147.889 40.1107 147.277 40.2246 146.574 40.2246C145.572 40.2246 144.764 39.9642 144.152 39.4434C143.547 38.916 143.244 38.1608 143.244 37.1777C143.244 36.084 143.658 35.2734 144.484 34.7461C145.318 34.2188 146.516 33.89 148.078 33.7598C148.293 33.7402 148.615 33.7142 149.045 33.6816C149.481 33.6426 149.807 33.6133 150.021 33.5938V32.6465C150.021 31.8913 149.846 31.3314 149.494 30.9668C149.143 30.6022 148.589 30.4199 147.834 30.4199C146.779 30.4199 145.715 30.6803 144.641 31.2012C144.608 31.123 144.523 30.8984 144.387 30.5273C144.25 30.1497 144.178 29.9544 144.172 29.9414C144.647 29.6745 145.21 29.4629 145.861 29.3066C146.519 29.1439 147.186 29.0625 147.863 29.0625C149.198 29.0625 150.158 29.3555 150.744 29.9414C151.337 30.5208 151.633 31.5104 151.633 32.9102V40H150.363ZM157.326 40.1953C156.285 40.1953 155.546 39.9154 155.109 39.3555C154.68 38.7956 154.465 37.8223 154.465 36.4355V25.127L156.086 25.0293V35.791C156.086 36.2337 156.089 36.5885 156.096 36.8555C156.109 37.1224 156.135 37.3861 156.174 37.6465C156.213 37.9004 156.265 38.0924 156.33 38.2227C156.395 38.3529 156.49 38.4733 156.613 38.584C156.737 38.6882 156.883 38.7598 157.053 38.7988C157.229 38.8314 157.443 38.8477 157.697 38.8477C157.906 38.8477 158.316 38.8086 158.928 38.7305L159.016 40.0293C158.345 40.14 157.782 40.1953 157.326 40.1953ZM161.203 34.668C161.203 35.9375 161.483 36.9564 162.043 37.7246C162.609 38.4863 163.433 38.8672 164.514 38.8672C165.581 38.8672 166.385 38.4863 166.926 37.7246C167.473 36.9629 167.746 35.9375 167.746 34.6484C167.746 33.3398 167.476 32.3112 166.936 31.5625C166.402 30.8073 165.585 30.4297 164.484 30.4297C163.417 30.4297 162.603 30.8138 162.043 31.582C161.483 32.3503 161.203 33.3789 161.203 34.668ZM169.436 34.6387C169.436 36.2988 168.993 37.6465 168.107 38.6816C167.222 39.7103 165.998 40.2246 164.436 40.2246C162.932 40.2246 161.734 39.7038 160.842 38.6621C159.956 37.6204 159.514 36.2826 159.514 34.6484C159.514 32.9818 159.96 31.6341 160.852 30.6055C161.743 29.5768 162.967 29.0625 164.523 29.0625C166.053 29.0625 167.255 29.5801 168.127 30.6152C168.999 31.6439 169.436 32.985 169.436 34.6387ZM175.91 38.6035C176.464 38.6035 176.949 38.5059 177.365 38.3105C177.782 38.1152 178.107 37.8451 178.342 37.5C178.576 37.1549 178.749 36.7708 178.859 36.3477C178.977 35.9245 179.035 35.4622 179.035 34.9609V34.1699C179.035 33.6491 178.977 33.1706 178.859 32.7344C178.742 32.2917 178.56 31.8978 178.312 31.5527C178.072 31.2012 177.746 30.9277 177.336 30.7324C176.932 30.5371 176.46 30.4395 175.92 30.4395C175.471 30.4395 175.061 30.5241 174.689 30.6934C174.325 30.8626 174.022 31.0872 173.781 31.3672C173.547 31.6406 173.345 31.9629 173.176 32.334C173.013 32.6986 172.896 33.0697 172.824 33.4473C172.753 33.8249 172.717 34.2057 172.717 34.5898C172.717 34.9674 172.756 35.3418 172.834 35.7129C172.912 36.084 173.036 36.4453 173.205 36.7969C173.374 37.1484 173.579 37.4577 173.82 37.7246C174.061 37.985 174.361 38.1966 174.719 38.3594C175.083 38.5221 175.48 38.6035 175.91 38.6035ZM173.4 44.9023L173.254 43.4277H175.246C175.799 43.4277 176.281 43.3887 176.691 43.3105C177.102 43.2324 177.443 43.1022 177.717 42.9199C177.99 42.7441 178.212 42.5456 178.381 42.3242C178.55 42.1094 178.677 41.8262 178.762 41.4746C178.853 41.1296 178.911 40.7845 178.938 40.4395C178.97 40.1009 178.986 39.6842 178.986 39.1895V38.2422C178.596 38.8021 178.143 39.235 177.629 39.541C177.115 39.8405 176.46 39.9902 175.666 39.9902C175.054 39.9902 174.488 39.8861 173.967 39.6777C173.452 39.4629 173.016 39.1797 172.658 38.8281C172.307 38.4766 172.004 38.0697 171.75 37.6074C171.503 37.1452 171.32 36.6667 171.203 36.1719C171.092 35.6771 171.037 35.179 171.037 34.6777C171.037 33.8965 171.132 33.1738 171.32 32.5098C171.516 31.8457 171.802 31.2533 172.18 30.7324C172.557 30.2116 173.052 29.8047 173.664 29.5117C174.283 29.2122 174.989 29.0625 175.783 29.0625C176.486 29.0625 177.098 29.1992 177.619 29.4727C178.146 29.7396 178.618 30.153 179.035 30.7129V29.2871H180.627V39.2285C180.627 39.6842 180.614 40.0814 180.588 40.4199C180.568 40.765 180.513 41.1458 180.422 41.5625C180.337 41.9792 180.22 42.3372 180.07 42.6367C179.921 42.9362 179.709 43.2357 179.436 43.5352C179.169 43.8411 178.846 44.0853 178.469 44.2676C178.098 44.4564 177.635 44.6094 177.082 44.7266C176.529 44.8438 175.904 44.9023 175.207 44.9023H173.4Z" fill="#084F93"/>
</svg>
