<svg width="32" height="32" viewBox="0 0 32 32" fill="none" xmlns="http://www.w3.org/2000/svg">
<g clip-path="url(#clip0_16_92)">
<path fill-rule="evenodd" clip-rule="evenodd" d="M3.01017 0H28.9846C29.8127 0 30.5652 0.338514 31.1121 0.885345C31.6589 1.43218 31.9974 2.18472 31.9974 3.01278V28.9872C31.9974 29.8153 31.6589 30.5678 31.1121 31.1147C30.5678 31.6589 29.8127 32 28.9846 32H3.01017C2.18211 32 1.42957 31.6615 0.882741 31.1147C0.338514 30.5678 0 29.8153 0 28.9872V3.01017C0 2.18211 0.338514 1.42957 0.885345 0.885345C1.42957 0.338514 2.18211 0 3.01017 0ZM14.9024 18.8735C14.5066 18.7485 14.1447 18.5506 13.8114 18.2746C13.4572 17.9803 13.1396 17.6053 12.8583 17.1392C12.7281 17.147 12.6057 17.1496 12.486 17.1496C12.2776 17.1523 12.0615 17.1418 11.835 17.1262C10.9444 17.0611 10.2726 16.8163 9.60338 16.5742C9.16852 16.4153 8.73366 16.2591 8.26235 16.1627C8.09309 16.1289 7.94206 16.1263 7.80926 16.1419C7.58272 16.1758 7.40565 16.2877 7.27285 16.4518C7.12182 16.6341 7.02026 16.884 6.96558 17.1549C6.90569 17.4543 6.90048 17.7824 6.94735 18.0897C6.98901 18.3631 7.06713 18.6417 7.16608 18.9125C7.26764 19.1937 7.39263 19.4646 7.52543 19.7171C7.64521 19.9515 7.78062 20.1728 7.92904 20.3838C8.07747 20.5973 8.24152 20.803 8.41338 20.9983C8.99406 21.6597 9.59557 22.1076 10.1893 22.3549C10.7309 22.5815 11.2699 22.6362 11.7829 22.5424C12.3011 22.4461 12.7984 22.1909 13.2541 21.7899C13.84 21.2769 14.353 20.5296 14.7514 19.5661C14.8191 19.4047 14.8582 19.2406 14.879 19.074C14.8972 19.0141 14.9024 18.9438 14.9024 18.8735ZM19.2641 17.1392C19.1078 17.522 18.8787 17.8657 18.574 18.1756C18.2511 18.5037 17.8501 18.7875 17.3606 19.0271C17.3554 19.1573 17.3502 19.2797 17.3371 19.3995C17.3215 19.6078 17.2955 19.8239 17.259 20.0452C17.1184 20.9254 16.8189 21.5764 16.5195 22.2221C16.3242 22.644 16.1315 23.0606 15.9961 23.5215C15.9466 23.6882 15.931 23.8366 15.9388 23.972C15.9544 24.2012 16.0508 24.386 16.2018 24.5319C16.3711 24.6985 16.6106 24.8209 16.8762 24.899C17.1705 24.9849 17.496 25.0188 17.8058 24.998C18.0819 24.9797 18.3657 24.9251 18.6443 24.8495C18.9334 24.7714 19.212 24.6699 19.4776 24.5579C19.7224 24.4563 19.9541 24.3418 20.1754 24.2116C20.402 24.0814 20.6181 23.9356 20.829 23.7819C21.5373 23.2611 22.0321 22.6987 22.3315 22.1284C22.6023 21.6076 22.7065 21.0738 22.6544 20.5556C22.6023 20.0322 22.3888 19.514 22.0295 19.0245C21.5686 18.3969 20.8655 17.8215 19.9411 17.3449C19.7875 17.2642 19.626 17.2095 19.462 17.1783C19.4021 17.1575 19.3344 17.147 19.2641 17.1392ZM17.1496 13.1005C17.5376 13.2411 17.8918 13.4546 18.2147 13.7437C18.5584 14.0535 18.8604 14.4415 19.1208 14.9181C19.2432 14.9181 19.3682 14.9207 19.4932 14.9259C19.7171 14.9337 19.9307 14.9493 20.1416 14.9727C21.0217 15.0743 21.6857 15.3451 22.3471 15.6185C22.7716 15.7904 23.1934 15.9648 23.6726 16.082C23.6778 16.0846 23.6804 16.0846 23.6882 16.0872C23.8496 16.1263 23.9954 16.1341 24.123 16.1211C24.3522 16.0976 24.5319 15.9909 24.6725 15.8346C24.8287 15.6576 24.9407 15.4128 25.0084 15.142C25.0813 14.8451 25.0969 14.517 25.0657 14.2098C25.037 13.9312 24.9693 13.6525 24.8834 13.3765C24.7923 13.0927 24.6803 12.8167 24.5553 12.5563C24.4433 12.3193 24.3157 12.0902 24.1777 11.874C24.0397 11.6605 23.8861 11.4496 23.7194 11.2413C23.1674 10.5564 22.5841 10.0877 22.0008 9.81691C21.4696 9.57214 20.9306 9.49142 20.415 9.56433C19.8942 9.63984 19.3864 9.8742 18.9125 10.2544C18.3058 10.7413 17.7616 11.4704 17.3267 12.4131C17.2538 12.5719 17.2069 12.7359 17.1783 12.9C17.1627 12.9625 17.1549 13.0302 17.1496 13.1005ZM17.7277 14.478C17.3267 14.077 16.7721 13.8296 16.1601 13.8296C15.5482 13.8296 14.9936 14.077 14.5926 14.478C14.1916 14.879 13.9442 15.4336 13.9442 16.0456C13.9442 16.6575 14.1916 17.2121 14.5926 17.6105C14.9936 18.0116 15.5482 18.2589 16.1601 18.2589C16.7721 18.2589 17.3267 18.0089 17.7277 17.6105C18.1287 17.2095 18.3761 16.6549 18.3761 16.0456C18.3761 15.4362 18.1261 14.8764 17.7277 14.478ZM13.1135 14.9285C13.2515 14.5379 13.465 14.1837 13.7515 13.8609C14.0561 13.5197 14.4467 13.2177 14.9233 12.9547C14.9233 12.8297 14.9233 12.7073 14.9285 12.5823C14.9363 12.361 14.9519 12.1448 14.9753 11.9339C15.0743 11.0486 15.3451 10.3846 15.6133 9.72577C15.7878 9.29612 15.9622 8.86647 16.0768 8.40036C16.1185 8.2337 16.1289 8.08268 16.1133 7.94987C16.0898 7.72333 15.9805 7.54105 15.8242 7.40044C15.6446 7.2416 15.4024 7.13223 15.1316 7.06713C14.8347 6.99683 14.5066 6.9786 14.1994 7.01245C13.9207 7.0437 13.6395 7.1088 13.3661 7.19733C13.0875 7.28586 12.8115 7.40044 12.5459 7.52543C12.3089 7.6374 12.0823 7.76499 11.8636 7.90561C11.6423 8.04882 11.4314 8.19985 11.2335 8.3639C10.5486 8.91854 10.0799 9.50183 9.8091 10.0903C9.56433 10.6215 9.4836 11.1606 9.56172 11.6735C9.63724 12.1943 9.87159 12.7021 10.2544 13.1734C10.7439 13.7775 11.473 14.3218 12.4183 14.7566C12.5771 14.8295 12.7411 14.8764 12.9026 14.9024C12.9729 14.9155 13.0432 14.9233 13.1135 14.9285ZM15.9987 4.00749C22.6232 4.00749 27.9925 9.37684 27.9925 16.0013C27.9925 22.6258 22.6232 27.9951 15.9987 27.9951C9.37424 27.9951 4.00488 22.6258 4.00488 16.0013C4.00488 9.37684 9.37424 4.00749 15.9987 4.00749ZM28.1383 2.48938C28.9794 2.48938 29.659 3.17162 29.659 4.01009C29.659 4.85117 28.9768 5.5308 28.1383 5.5308C27.2999 5.5308 26.6176 4.84856 26.6176 4.01009C26.6176 3.16901 27.2999 2.48938 28.1383 2.48938ZM3.85646 2.48938C4.69753 2.48938 5.37717 3.17162 5.37717 4.01009C5.37717 4.85117 4.69493 5.5308 3.85646 5.5308C3.01538 5.5308 2.33575 4.84856 2.33575 4.01009C2.33575 3.16901 3.01798 2.48938 3.85646 2.48938ZM28.1383 26.49C28.9794 26.49 29.659 27.1723 29.659 28.0107C29.659 28.8492 28.9768 29.5315 28.1383 29.5315C27.2999 29.5315 26.6176 28.8492 26.6176 28.0107C26.6176 27.1723 27.2999 26.49 28.1383 26.49ZM5.37977 28.0107C5.37977 28.8518 4.69753 29.5315 3.85906 29.5315C3.01798 29.5315 2.33835 28.8492 2.33835 28.0107C2.33835 27.1723 3.02059 26.49 3.85906 26.49C4.69753 26.49 5.37977 27.1723 5.37977 28.0107Z" fill="black"/>
</g>
<defs>
<clipPath id="clip0_16_92">
<rect width="31.9974" height="32" fill="white"/>
</clipPath>
</defs>
</svg>
