<svg width="40" height="32" viewBox="0 0 40 32" fill="none" xmlns="http://www.w3.org/2000/svg">
<g clip-path="url(#clip0_16_80)">
<path fill-rule="evenodd" clip-rule="evenodd" d="M3.27474 0H6.91081V6.22523H37.4154C38.125 6.22523 38.6361 6.51761 39.1048 6.99066C39.5736 7.46371 40 8.11744 40 8.83359V25.0718C40 25.7879 39.7103 26.4416 39.2415 26.9147C38.776 27.3845 38.125 27.6801 37.4154 27.6801H36.4941V29.6972C36.4941 29.9403 36.3932 30.1636 36.2337 30.3279L36.2305 30.3312C36.0677 30.4921 35.8464 30.594 35.6055 30.594H20.2734C20.0293 30.594 19.8079 30.4921 19.6452 30.3312C19.6289 30.3148 19.6126 30.295 19.5996 30.2786C19.4661 30.1209 19.3848 29.9173 19.3848 29.6972V27.6801H17.2201V29.6972C17.2201 29.9435 17.1191 30.1669 16.9596 30.3312C16.9434 30.3476 16.9238 30.364 16.9076 30.3772C16.7513 30.5119 16.5495 30.594 16.3314 30.594H9.10482C8.86068 30.594 8.63932 30.4921 8.47656 30.3312C8.46029 30.3148 8.44401 30.295 8.43099 30.2786C8.29753 30.1209 8.21615 29.9173 8.21615 29.6972V27.6801H6.91081V32H3.27474V24.7925H2.08333C1.97591 24.7925 1.88802 24.7038 1.88802 24.5954V19.0436C1.88802 18.9352 1.97591 18.8465 2.08333 18.8465H3.27148V13.8072H2.08333C1.97591 13.8072 1.88802 13.7185 1.88802 13.6101V8.05831C1.88802 7.9499 1.97591 7.8612 2.08333 7.8612H3.27148V2.92372H1.44857C0.654297 2.92372 0 2.26671 0 1.46186C0 0.657017 0.651042 0 1.44857 0H3.27474ZM12.1387 22.6802H13.1576V21.4319H12.1387V22.6802ZM29.9316 9.92095C31.8555 9.92095 33.597 10.7094 34.8568 11.9807C36.1165 13.252 36.8978 15.0095 36.8978 16.951C36.8978 18.8925 36.1165 20.65 34.8568 21.9214C33.597 23.1927 31.8555 23.9811 29.9316 23.9811C28.0078 23.9811 26.2663 23.1927 25.0065 21.9214C23.7467 20.65 22.9655 18.8925 22.9655 16.951C22.9655 15.0095 23.7467 13.252 25.0065 11.9807C26.2663 10.7094 28.0078 9.92095 29.9316 9.92095ZM34.2741 12.572C33.1641 11.4518 31.6276 10.7586 29.9316 10.7586C28.2357 10.7586 26.7025 11.4518 25.5892 12.572C24.4792 13.6922 23.7923 15.2428 23.7923 16.9543C23.7923 18.6658 24.4792 20.2131 25.5892 21.3366C26.6992 22.4568 28.2357 23.15 29.9316 23.15C31.6276 23.15 33.1608 22.4568 34.2741 21.3366C35.3841 20.2164 36.071 18.6658 36.071 16.9543C36.071 15.2428 35.3841 13.6922 34.2741 12.572ZM31.9531 17.6672C31.8555 17.907 31.7155 18.1238 31.5267 18.3176C31.3281 18.5246 31.0775 18.702 30.7747 18.8531C30.7715 18.9352 30.7682 19.0108 30.7617 19.0863C30.752 19.2177 30.7357 19.3524 30.7129 19.4904C30.625 20.0423 30.4395 20.4496 30.2539 20.8537C30.1335 21.1165 30.013 21.3793 29.9284 21.6684C29.8991 21.7735 29.8893 21.8655 29.8926 21.9509C29.9023 22.0955 29.9609 22.2104 30.0553 22.3024C30.1595 22.4076 30.3092 22.4831 30.472 22.5324C30.6543 22.5849 30.8561 22.6079 31.0514 22.5948C31.2207 22.5849 31.3997 22.5488 31.5723 22.5028C31.7513 22.4535 31.9238 22.3911 32.0898 22.3221C32.2428 22.2597 32.3861 22.1875 32.5228 22.1053C32.6628 22.0232 32.7995 21.9345 32.9297 21.836C33.3691 21.5107 33.6784 21.1559 33.8607 20.8011C34.0299 20.4759 34.0918 20.1408 34.0592 19.8156C34.0267 19.4871 33.8965 19.1652 33.6719 18.8564C33.3854 18.4622 32.9492 18.1041 32.3763 17.8019C32.2819 17.7526 32.181 17.7165 32.0801 17.6967C32.0378 17.677 31.9954 17.6705 31.9531 17.6672ZM30.638 15.1377C30.8789 15.2264 31.1003 15.3578 31.2988 15.5417C31.5137 15.7355 31.6992 15.9786 31.862 16.2776C31.9368 16.2776 32.015 16.2776 32.0931 16.2809C32.2331 16.2874 32.3665 16.2973 32.4967 16.3104C33.0436 16.3729 33.457 16.5437 33.8672 16.7145C34.1309 16.8229 34.3913 16.9313 34.6908 17.0036C34.694 17.0036 34.6973 17.0036 34.7005 17.0069C34.8014 17.0299 34.8893 17.0364 34.9707 17.0266C35.1139 17.0102 35.2246 16.9445 35.3125 16.8459C35.4102 16.7342 35.4785 16.5831 35.5208 16.4123C35.5664 16.225 35.5762 16.0214 35.5566 15.8275C35.5371 15.6534 35.498 15.4793 35.4427 15.3052C35.3841 15.1278 35.3158 14.9537 35.2409 14.7894C35.1725 14.6416 35.0911 14.4971 35.0065 14.3624C34.9219 14.2277 34.8242 14.0963 34.7201 13.9649C34.3783 13.5345 34.0169 13.2422 33.6523 13.0713C33.3203 12.9169 32.9883 12.8677 32.666 12.9137C32.3438 12.9629 32.028 13.1075 31.735 13.344C31.3574 13.6495 31.0221 14.1061 30.7487 14.6975C30.7031 14.796 30.6738 14.8979 30.6576 15.003C30.6478 15.049 30.6413 15.0917 30.638 15.1377ZM28.1315 16.2809C28.2161 16.0378 28.3496 15.8144 28.5286 15.6107C28.7174 15.3972 28.9616 15.2067 29.2578 15.0424C29.2578 14.9636 29.2578 14.888 29.2611 14.8092C29.2643 14.6712 29.2741 14.5332 29.2904 14.4018C29.3522 13.8466 29.5182 13.4327 29.6875 13.0188C29.7949 12.7494 29.9056 12.48 29.974 12.1877C30 12.0825 30.0065 11.9873 29.9967 11.9051C29.9805 11.7639 29.9154 11.6489 29.8177 11.5602C29.707 11.4617 29.5573 11.3927 29.388 11.35C29.2025 11.304 29.0007 11.2941 28.8086 11.3171C28.6361 11.3368 28.4603 11.3762 28.291 11.4321C28.1185 11.4879 27.946 11.5602 27.7832 11.6391C27.6367 11.708 27.4967 11.7902 27.36 11.8789C27.2233 11.9676 27.0931 12.0628 26.9694 12.1647C26.543 12.5129 26.2533 12.8775 26.0872 13.2455C25.9342 13.5805 25.8854 13.9156 25.9342 14.2376C25.9831 14.5628 26.1263 14.8814 26.3639 15.1771C26.6667 15.5549 27.1224 15.8965 27.7083 16.1692C27.806 16.2152 27.9069 16.2447 28.0111 16.2612C28.0469 16.2743 28.0892 16.2776 28.1315 16.2809ZM31.1035 15.8899C30.8268 15.614 30.446 15.4399 30.026 15.4399C29.6061 15.4399 29.222 15.614 28.9486 15.8899C28.6719 16.1692 28.5026 16.5535 28.5026 16.9773C28.5026 17.4011 28.6751 17.7887 28.9486 18.0647C29.2253 18.3439 29.6061 18.5147 30.026 18.5147C30.446 18.5147 30.8301 18.3406 31.1035 18.0647C31.3802 17.7854 31.5495 17.4011 31.5495 16.9773C31.5527 16.5568 31.3802 16.1692 31.1035 15.8899ZM29.2415 18.7611C29.0007 18.6757 28.776 18.5476 28.5742 18.3702C28.3561 18.1797 28.1673 17.9398 27.998 17.6442C27.9232 17.6442 27.8451 17.6442 27.7669 17.6442C27.6335 17.6409 27.4967 17.6343 27.3665 17.6212C26.8164 17.5653 26.3997 17.4044 25.9896 17.2401C25.7227 17.135 25.4557 17.0299 25.1628 16.9609C25.0586 16.9379 24.9642 16.9313 24.8828 16.9412C24.7396 16.9609 24.6289 17.0266 24.5443 17.1251C24.4499 17.2368 24.3815 17.3912 24.3424 17.5588C24.3001 17.746 24.2936 17.9497 24.3164 18.1435C24.3392 18.3176 24.3815 18.4917 24.4401 18.6626C24.4987 18.8432 24.5736 19.0141 24.6517 19.1717C24.7233 19.3163 24.8047 19.4576 24.8926 19.5955C24.9837 19.7335 25.0814 19.8649 25.1823 19.9897C25.5306 20.4102 25.8984 20.6993 26.2663 20.8636C26.6016 21.0147 26.9336 21.0574 27.2526 21.0081C27.5749 20.9555 27.8874 20.8044 28.1771 20.5613C28.5482 20.2493 28.877 19.7893 29.1406 19.1915C29.1862 19.0929 29.2122 18.9878 29.2253 18.8859C29.235 18.8465 29.2383 18.8038 29.2415 18.7611ZM11.582 13.0451H18.4863C18.724 13.0451 18.916 13.2389 18.916 13.4787V20.4694C18.916 20.7092 18.7207 20.903 18.4863 20.903H11.582C11.3444 20.903 11.1523 20.7059 11.1523 20.4694V13.4787C11.1523 13.2389 11.3444 13.0451 11.582 13.0451ZM13.4017 15.0752H16.6667C16.8099 15.0752 16.9271 15.1935 16.9271 15.3381V18.6133C16.9271 18.7578 16.8099 18.8761 16.6667 18.8761H13.4017C13.2585 18.8761 13.1413 18.7578 13.1413 18.6133V15.3381C13.1413 15.1935 13.2585 15.0752 13.4017 15.0752ZM20.8398 17.342V18.1961H19.6029V17.342H20.8398ZM20.8398 15.7093V16.5634H19.6029V15.7093H20.8398ZM20.8398 18.9779V20.0062H19.6029V18.9779H20.8398ZM20.8398 13.9025V14.9307H19.6029V13.9025H20.8398ZM9.48893 17.342V18.1961H10.7259V17.342H9.48893ZM9.48893 15.7093V16.5634H10.7259V15.7093H9.48893ZM9.48893 18.9779V20.0062H10.7259V18.9779H9.48893ZM9.48893 13.9025V14.9307H10.7259V13.9025H9.48893ZM15.5501 11.2251H16.3965V12.4735H15.5501V11.2251ZM13.9323 11.2251H14.7786V12.4735H13.9323V11.2251ZM17.168 11.2251H18.1868V12.4735H17.168V11.2251ZM12.1387 11.2251H13.1576V12.4735H12.1387V11.2251ZM15.5501 22.6802H16.3965V21.4319H15.5501V22.6802ZM13.9323 22.6802H14.7786V21.4319H13.9323V22.6802ZM17.168 22.6802H18.1868V21.4319H17.168V22.6802ZM6.91081 7.98275V26.0113H36.7383C37.194 26.0113 37.6074 25.824 37.9069 25.5185C38.2064 25.213 38.3952 24.7958 38.3952 24.3392V9.65486C38.3952 9.19495 38.2096 8.77774 37.9069 8.47552C37.6107 8.17329 37.194 7.98275 36.7415 7.98275H6.91081ZM35.3646 27.6801H33.2715C33.304 27.7524 33.3236 27.8312 33.3236 27.9166V29.4541H35.3646V27.6801ZM32.2428 27.6801H29.86C29.8926 27.7524 29.9121 27.8312 29.9121 27.9166V29.4541H32.194V27.9166C32.194 27.8345 32.2103 27.7524 32.2428 27.6801ZM28.8314 27.6801H26.4453C26.4779 27.7524 26.4974 27.8312 26.4974 27.9166V29.4541H28.7793V27.9166C28.7793 27.8345 28.7988 27.7524 28.8314 27.6801ZM25.4199 27.6801H23.0371C23.0697 27.7524 23.0892 27.8312 23.0892 27.9166V29.4541H25.3711V27.9166C25.3678 27.8345 25.3874 27.7524 25.4199 27.6801ZM22.0085 27.6801H20.5143V29.4541H21.9564V27.9166C21.9564 27.8345 21.9759 27.7524 22.0085 27.6801ZM16.0905 27.6801H14.6647C14.6973 27.7524 14.7168 27.8312 14.7168 27.9166V29.4541H16.0905V27.6801ZM13.6393 27.6801H11.5951C11.6276 27.7524 11.6471 27.8312 11.6471 27.9166V29.4541H13.5905V27.9166C13.5872 27.8345 13.6068 27.7524 13.6393 27.6801ZM10.5664 27.6801H9.34245V29.4541H10.5143V27.9166C10.5143 27.8345 10.5339 27.7524 10.5664 27.6801Z" fill="black"/>
</g>
<defs>
<clipPath id="clip0_16_80">
<rect width="40" height="32" fill="white"/>
</clipPath>
</defs>
</svg>
