<svg width="44" height="32" viewBox="0 0 44 32" fill="none" xmlns="http://www.w3.org/2000/svg">
<g clip-path="url(#clip0_16_83)">
<path d="M2.15961 3.40543H5.10039V0H7.32187V3.40543H11.4168V0H13.6374V3.40543H17.7315V0H19.9521V3.40543H24.047V0H26.2677V3.40543H30.3626V0H32.5832V3.40543H36.6781V0H38.8988V3.40543H41.8404C42.4316 3.40543 42.9705 3.64582 43.3623 4.03367L43.3666 4.03793C43.7568 4.42579 44 4.96026 44 5.54758V26.6647C44 27.2511 43.7568 27.7856 43.3666 28.1743L43.3623 28.1786C42.9705 28.5656 42.4316 28.8068 41.8404 28.8068H38.8988V32H36.6781V28.8068H32.5832V32H30.3626V28.8068H26.2677V32H24.047V28.8068H19.9521V32H17.7315V28.8068H13.6374V32H11.4168V28.8068H7.32187V32H5.10039V28.8068H2.15961C1.5675 28.8068 1.02953 28.5656 0.637656 28.1786L0.633359 28.1743C0.243203 27.7856 0 27.2511 0 26.6647V5.54758C0 4.96026 0.243203 4.42579 0.633359 4.03793L0.637656 4.03367C1.02953 3.64582 1.5675 3.40543 2.15961 3.40543ZM15.4653 20.4624H12.3733L11.2209 17.8694H10.4852V20.4624H7.8057V11.7498H12.2332C14.2476 11.7498 15.2548 12.7676 15.2548 14.8023C15.2548 16.1969 14.8191 17.1167 13.9477 17.5625L15.4653 20.4624ZM10.4852 13.8502V15.8534H11.263C11.6007 15.8534 11.8465 15.8184 12.0012 15.7485C12.1559 15.6786 12.2332 15.5184 12.2332 15.2678V14.4358C12.2332 14.1843 12.155 14.0241 12.0012 13.955C11.8465 13.8851 11.5998 13.8502 11.263 13.8502H10.4852ZM18.9647 20.4624H15.9998L18.2763 11.7498H22.6188L24.8952 20.4624H21.9304L21.6073 19.0824H19.2878L18.9647 20.4624ZM20.1068 14.4264L19.794 16.8661H21.0865L20.7874 14.4264H20.1068ZM28.4367 20.4624H25.4994L26.033 11.7498H29.7017L30.7983 16.1824H30.8962L31.992 11.7498H35.6598L36.1943 20.4624H33.257L33.0885 16.2387H32.9897L31.9215 20.4624H29.7722L28.6902 16.2387H28.6052L28.4367 20.4624ZM41.7794 5.6081H2.22062V26.6042H41.7794V5.6081Z" fill="black"/>
</g>
<defs>
<clipPath id="clip0_16_83">
<rect width="44" height="32" fill="white"/>
</clipPath>
</defs>
</svg>
