<svg width="26" height="32" viewBox="0 0 26 32" fill="none" xmlns="http://www.w3.org/2000/svg">
<g clip-path="url(#clip0_16_86)">
<path d="M1.42926 0H24.5734C24.9648 0 25.3222 0.158854 25.5796 0.414062L25.5823 0.416667C25.8397 0.671875 26 1.02604 26 1.41406V24.8307V30.5833C26 30.9714 25.8397 31.3255 25.5823 31.5807L25.5796 31.5833C25.3222 31.8385 24.9648 31.9974 24.5734 31.9974H1.42926C1.03517 31.9974 0.67785 31.8385 0.420372 31.5833C0.160267 31.3281 0 30.974 0 30.5833V24.8333V1.41667C0 1.02865 0.160267 0.674479 0.417745 0.419271L0.420372 0.416667C0.680477 0.158854 1.03779 0 1.42926 0ZM17.0671 5.54687H18.809C19.9335 5.54687 20.6928 5.59635 21.0895 5.70052C21.4863 5.80469 21.7884 5.97135 21.9933 6.20573C22.1983 6.4401 22.3296 6.70052 22.3795 6.98698C22.4295 7.27604 22.4557 7.83854 22.4557 8.67969V11.7891C22.4557 12.5859 22.419 13.1198 22.3428 13.388C22.2666 13.6562 22.1352 13.8698 21.9487 14.0208C21.7595 14.1719 21.5283 14.276 21.2498 14.3385C20.9739 14.3984 20.5562 14.4297 19.9992 14.4297H17.0671V5.54687ZM19.4002 7.0625V12.9115C19.7312 12.9115 19.9335 12.8438 20.0097 12.7109C20.0859 12.5755 20.1253 12.2135 20.1253 11.6198V8.16667C20.1253 7.76562 20.1122 7.50521 20.0885 7.39323C20.0622 7.27865 20.0044 7.19792 19.9125 7.14323C19.8232 7.08854 19.6524 7.0625 19.4002 7.0625ZM10.8088 5.54687H12.5507C13.6752 5.54687 14.4345 5.59635 14.8312 5.70052C15.228 5.80469 15.5301 5.97135 15.735 6.20573C15.94 6.4401 16.0713 6.70052 16.1213 6.98698C16.1712 7.27604 16.1975 7.83854 16.1975 8.67969V11.7891C16.1975 12.5859 16.1607 13.1198 16.0845 13.388C16.0083 13.6562 15.8769 13.8698 15.6904 14.0208C15.5012 14.1719 15.27 14.276 14.9915 14.3385C14.7156 14.3984 14.2979 14.4297 13.7409 14.4297H10.8088V5.54687ZM13.1419 7.0625V12.9115C13.4729 12.9115 13.6752 12.8438 13.7514 12.7109C13.8276 12.5755 13.867 12.2135 13.867 11.6198V8.16667C13.867 7.76562 13.8539 7.50521 13.8302 7.39323C13.804 7.27865 13.7462 7.19792 13.6542 7.14323C13.5622 7.08854 13.3915 7.0625 13.1419 7.0625ZM9.8656 5.54687V14.4271H7.53254V10.7005H6.85206V14.4271H4.519V5.54687H6.85206V8.72396H7.53254V5.54687H9.8656ZM19.5762 27.2083H22.5845C22.7369 27.2083 22.8603 27.3333 22.8603 27.4818V28.5312C22.8603 28.6797 22.7342 28.8047 22.5845 28.8047H19.5762C19.4264 28.8047 19.3003 28.6823 19.3003 28.5312V27.4818C19.3003 27.3307 19.4238 27.2083 19.5762 27.2083ZM1.47656 24.1016H24.5234V1.46354H1.47656V24.1016ZM24.5234 25.5651H1.47656V30.5365H24.5234V25.5651Z" fill="black"/>
</g>
<defs>
<clipPath id="clip0_16_86">
<rect width="26" height="32" fill="white"/>
</clipPath>
</defs>
</svg>
