<svg width="49" height="32" viewBox="0 0 49 32" fill="none" xmlns="http://www.w3.org/2000/svg">
<g clip-path="url(#clip0_16_89)">
<path fill-rule="evenodd" clip-rule="evenodd" d="M38.5524 24.4282L36.4709 24.2344L38.1975 20.4881H40.5542L39.2183 22.6362L41.6229 22.9012L37.2086 28.1587L38.5524 24.4282ZM2.03369 0H46.9623C47.5206 0 48.027 0.229447 48.3979 0.593398C48.7647 0.957349 48.996 1.46372 48.996 2.02151V29.9824C48.996 30.5402 48.7687 31.0427 48.3979 31.4106C48.031 31.7745 47.5206 32.004 46.9583 32.004H2.03369C1.47144 32.004 0.965007 31.7785 0.594157 31.4106C0.574219 31.3908 0.554281 31.371 0.53833 31.3473C0.203369 30.9833 0 30.5046 0 29.9824V2.02151C0 1.46767 0.227295 0.965261 0.598145 0.597354L0.602132 0.593398C0.972982 0.225491 1.47941 0 2.03369 0ZM46.9623 1.69712H2.03369C1.94198 1.69712 1.86222 1.73272 1.80241 1.78811V1.79206C1.74658 1.84745 1.71069 1.93052 1.71069 2.02151V29.9824C1.71069 30.0616 1.73861 30.1328 1.78247 30.1882L1.8064 30.2119C1.86621 30.2712 1.94596 30.3068 2.03768 30.3068H46.9663C47.054 30.3068 47.1378 30.2712 47.1976 30.2119C47.2574 30.1526 47.2933 30.0734 47.2933 29.9824V2.02151C47.2933 1.93448 47.2574 1.8514 47.1976 1.79206C47.1378 1.73272 47.054 1.69712 46.9623 1.69712ZM34.0304 4.67202H43.5609C44.163 4.67202 44.6575 5.16257 44.6575 5.75992V15.0644C44.6575 15.6657 44.163 16.1523 43.5609 16.1523H34.0304C33.4283 16.1523 32.9338 15.6618 32.9338 15.0644V5.75992C32.9299 5.16257 33.4243 4.67202 34.0304 4.67202ZM17.3382 11.8759C17.8327 11.9787 18.2952 12.1686 18.706 12.4337L20.8234 10.333C19.8425 9.56558 18.6462 9.05922 17.3382 8.90493V11.8759ZM19.8584 13.569C20.1296 13.9765 20.3289 14.4354 20.4366 14.9299H23.4313C23.2718 13.6323 22.7534 12.4455 21.9718 11.4724L19.8584 13.569ZM20.4486 16.5479C20.3489 17.0503 20.1535 17.5171 19.8823 17.9285L21.9998 20.0292C22.7773 19.0481 23.2917 17.8534 23.4393 16.5479H20.4486ZM18.7339 19.0758C18.3152 19.3527 17.8446 19.5505 17.3342 19.6534V22.6243C18.6541 22.47 19.8584 21.9518 20.8473 21.1725L18.7339 19.0758ZM15.7073 19.6534C15.2008 19.5505 14.7263 19.3487 14.3076 19.0758L12.1942 21.1725C13.1831 21.9518 14.3874 22.47 15.7073 22.6243V19.6534ZM13.1632 17.9285C12.892 17.5132 12.6966 17.0464 12.5969 16.5479H9.6062C9.75374 17.8534 10.2681 19.0481 11.0457 20.0292L13.1632 17.9285ZM12.6089 14.9299C12.7166 14.4354 12.9159 13.9765 13.1871 13.569L11.0697 11.4724C10.2881 12.4455 9.7697 13.6323 9.61019 14.9299H12.6089ZM14.3435 12.4337C14.7542 12.1686 15.2168 11.9787 15.7113 11.8759V8.90493C14.4033 9.05526 13.211 9.56558 12.2261 10.333L14.3435 12.4337ZM17.3382 7.28298C19.0928 7.44517 20.6918 8.13351 21.9798 9.18581L23.842 7.33836C22.0715 5.82322 19.8145 4.85004 17.3382 4.67202V7.28298ZM23.1322 10.3251C24.2009 11.599 24.8988 13.1893 25.0702 14.9339H27.7021C27.5186 12.4732 26.5257 10.2341 24.9905 8.48164L23.1322 10.3251ZM25.0742 16.5479C24.9147 18.2965 24.2209 19.8947 23.1562 21.1804L25.0184 23.0278C26.5496 21.2634 27.5346 19.0164 27.7061 16.5479H25.0742ZM22.0077 22.3236C20.7157 23.3878 19.1047 24.0841 17.3382 24.2502V26.8612C19.8305 26.6831 22.0955 25.6981 23.87 24.1711L22.0077 22.3236ZM15.7073 24.2463C13.9408 24.0801 12.3298 23.3839 11.0378 22.3197L9.17554 24.1671C10.95 25.6981 13.215 26.6792 15.7073 26.8572V24.2463ZM9.88932 21.1764C8.82463 19.8947 8.13078 18.2965 7.97127 16.5439H5.33944C5.51091 19.0125 6.49585 21.2595 8.0271 23.0239L9.88932 21.1764ZM7.97526 14.9299C8.14673 13.1853 8.84456 11.599 9.91325 10.3212L8.05103 8.47373C6.51579 10.2302 5.52287 12.4653 5.33944 14.9259H7.97526V14.9299ZM11.0657 9.18581C12.3537 8.13351 13.9527 7.44913 15.7073 7.28298V4.67202C13.231 4.85004 10.974 5.82322 9.20345 7.33836L11.0657 9.18581ZM16.5247 3.02633C20.0697 3.02633 23.2798 4.45049 25.6046 6.75683C27.9294 9.06317 29.3649 12.2477 29.3649 15.7646C29.3649 19.2815 27.9294 22.4661 25.6046 24.7724C23.2798 27.0787 20.0697 28.5029 16.5247 28.5029C12.9797 28.5029 9.7697 27.0787 7.44491 24.7724C5.12012 22.4661 3.68457 19.2815 3.68457 15.7646C3.68457 12.2477 5.12012 9.06317 7.44491 6.75683C9.7697 4.45444 12.9757 3.02633 16.5247 3.02633ZM36.9813 8.25615H37.6313C37.723 8.25615 37.8067 8.29571 37.8665 8.35505C37.9264 8.41439 37.9662 8.49747 37.9662 8.58845V10.0047C37.9662 10.0957 37.9264 10.1788 37.8665 10.2381C37.8067 10.2974 37.723 10.337 37.6313 10.337H36.9813C36.8896 10.337 36.8058 10.2974 36.746 10.2381C36.6862 10.1788 36.6463 10.0957 36.6463 10.0047V8.58845C36.6463 8.49747 36.6822 8.41439 36.746 8.35505C36.8058 8.29175 36.8896 8.25615 36.9813 8.25615ZM39.4337 12.944H38.1497C38.0699 12.944 37.9941 12.9123 37.9423 12.857C37.8905 12.8016 37.8586 12.7304 37.8586 12.6513V11.8442C37.8586 11.6425 37.9423 11.4565 38.0779 11.322C38.2135 11.1875 38.4009 11.1045 38.6043 11.1045H38.9751C39.1825 11.1045 39.3699 11.1875 39.5055 11.322C39.641 11.4565 39.7248 11.6425 39.7248 11.8482V12.6513C39.7248 12.7304 39.6929 12.8055 39.641 12.857C39.5892 12.9123 39.5174 12.944 39.4337 12.944ZM39.9521 8.25615H40.6021C40.6938 8.25615 40.7775 8.29571 40.8373 8.35505C40.8971 8.41439 40.937 8.49747 40.937 8.58845V10.0047C40.937 10.0957 40.8971 10.1788 40.8373 10.2381C40.7775 10.2974 40.6938 10.337 40.6021 10.337H39.9521C39.8604 10.337 39.7766 10.2974 39.7168 10.2381C39.657 10.1788 39.6171 10.0957 39.6171 10.0047V8.58845C39.6171 8.49747 39.653 8.41439 39.7168 8.35505C39.7766 8.29175 39.8604 8.25615 39.9521 8.25615ZM43.3216 5.57399C43.5848 5.57399 43.8001 5.78761 43.8001 6.04871C43.8001 6.3098 43.5848 6.52343 43.3216 6.52343C43.0584 6.52343 42.8431 6.3098 42.8431 6.04871C42.8431 5.78761 43.0584 5.57399 43.3216 5.57399ZM34.3255 14.2455C34.5887 14.2455 34.804 14.4591 34.804 14.7202C34.804 14.9813 34.5887 15.195 34.3255 15.195C34.0623 15.195 33.847 14.9813 33.847 14.7202C33.851 14.4591 34.0623 14.2455 34.3255 14.2455ZM38.7558 6.52738C40.9171 6.52738 42.6716 8.26802 42.6716 10.4122C42.6716 12.5563 40.9171 14.2969 38.7558 14.2969C36.5945 14.2969 34.8399 12.5563 34.8399 10.4122C34.8399 8.26802 36.5945 6.52738 38.7558 6.52738Z" fill="black"/>
</g>
<defs>
<clipPath id="clip0_16_89">
<rect width="49" height="32" fill="white"/>
</clipPath>
</defs>
</svg>
