<svg width="31" height="32" viewBox="0 0 31 32" fill="none" xmlns="http://www.w3.org/2000/svg">
<path d="M11.625 29.3333C12.3383 29.3333 12.9166 28.7364 12.9166 28C12.9166 27.2636 12.3383 26.6667 11.625 26.6667C10.9116 26.6667 10.3333 27.2636 10.3333 28C10.3333 28.7364 10.9116 29.3333 11.625 29.3333Z" stroke="black" stroke-width="2" stroke-linecap="round" stroke-linejoin="round"/>
<path d="M25.8334 29.3333C26.5467 29.3333 27.125 28.7364 27.125 28C27.125 27.2636 26.5467 26.6667 25.8334 26.6667C25.12 26.6667 24.5417 27.2636 24.5417 28C24.5417 28.7364 25.12 29.3333 25.8334 29.3333Z" stroke="black" stroke-width="2" stroke-linecap="round" stroke-linejoin="round"/>
<path d="M1.29041 1.33334H6.45707L9.91874 19.1867C10.0369 19.8005 10.3604 20.352 10.8327 20.7444C11.3049 21.1369 11.8959 21.3453 12.5021 21.3333H25.0571C25.6633 21.3453 26.2542 21.1369 26.7265 20.7444C27.1988 20.352 27.5223 19.8005 27.6404 19.1867L29.7071 8.00001H7.74874" stroke="black" stroke-width="2" stroke-linecap="round" stroke-linejoin="round"/>
</svg>
